name analog
datacolumns 19
datarows 46
range 0.4740000000000002 0.4965000000000002
endheader
time	ground_force_vx	ground_force_vy	ground_force_vz	ground_force_px	ground_force_py	ground_force_pz	l_ground_force_vx	l_ground_force_vy	l_ground_force_vz	l_ground_force_px	l_ground_force_py	l_ground_force_pz	ground_torque_x	ground_torque_y	ground_torque_z	l_ground_torque_x	l_ground_torque_y	l_ground_torque_z
0.4740000000000002	-0.0	-0.0	-0.0	6.628256797790527	-2.5443780422210693	-782.9998779296875	-0.0	-0.0	-0.0	-0.0	-0.0	-0.0	-0.0	-0.0	-0.0	-0.0	-0.0	-0.0
0.4745000000000002	-0.0	-0.0	-0.0	6.989752769470215	-3.271304130554199	-785.7012939453125	-0.0	-0.0	-0.0	-0.0	-0.0	-0.0	-0.0	-0.0	-0.0	-0.0	-0.0	-0.0
0.4750000000000002	-0.0	-0.0	-0.0	7.267502784729004	-4.923521995544434	-787.9841918945312	-0.0	-0.0	-0.0	-0.0	-0.0	-0.0	-0.0	-0.0	-0.0	-0.0	-0.0	-0.0
0.4755000000000002	-0.0	-0.0	-0.0	7.944982528686523	-5.604730606079102	-790.3959350585938	-0.0	-0.0	-0.0	-0.0	-0.0	-0.0	-0.0	-0.0	-0.0	-0.0	-0.0	-0.0
0.4760000000000002	-0.0	-0.0	-0.0	8.616419792175293	-6.742386341094971	-793.263671875	-0.0	-0.0	-0.0	-0.0	-0.0	-0.0	-0.0	-0.0	-0.0	-0.0	-0.0	-0.0
0.4765000000000002	-0.0	-0.0	-0.0	9.036211967468262	-7.182286262512207	-795.4639282226562	-0.0	-0.0	-0.0	-0.0	-0.0	-0.0	-0.0	-0.0	-0.0	-0.0	-0.0	-0.0
0.4770000000000002	-0.0	-0.0	-0.0	9.755642890930176	-7.564334869384766	-796.8994140625	-0.0	-0.0	-0.0	-0.0	-0.0	-0.0	-0.0	-0.0	-0.0	-0.0	-0.0	-0.0
0.4775000000000002	-0.0	-0.0	-0.0	9.928032875061035	-7.964349746704102	-800.8862915039062	-0.0	-0.0	-0.0	-0.0	-0.0	-0.0	-0.0	-0.0	-0.0	-0.0	-0.0	-0.0
0.4780000000000002	-0.0	-0.0	-0.0	10.112637519836426	-8.047224044799805	-802.6268310546875	-0.0	-0.0	-0.0	-0.0	-0.0	-0.0	-0.0	-0.0	-0.0	-0.0	-0.0	-0.0
0.4785000000000002	-0.0	-0.0	-0.0	10.393413543701172	-7.939138889312744	-806.309814453125	-0.0	-0.0	-0.0	-0.0	-0.0	-0.0	-0.0	-0.0	-0.0	-0.0	-0.0	-0.0
0.4790000000000002	-0.0	-0.0	-0.0	10.25920867919922	-8.097336769104004	-807.0892333984375	-0.0	-0.0	-0.0	-0.0	-0.0	-0.0	-0.0	-0.0	-0.0	-0.0	-0.0	-0.0
0.4795000000000002	-0.0	-0.0	-0.0	10.188072204589844	-7.0232439041137695	-807.82177734375	-0.0	-0.0	-0.0	-0.0	-0.0	-0.0	-0.0	-0.0	-0.0	-0.0	-0.0	-0.0
0.4800000000000002	-0.0	-0.0	-0.0	10.24146842956543	-6.691971302032471	-810.6049194335938	-0.0	-0.0	-0.0	-0.0	-0.0	-0.0	-0.0	-0.0	-0.0	-0.0	-0.0	-0.0
0.4805000000000002	-0.0	-0.0	-0.0	9.560384750366213	-6.456996917724609	-812.7357788085938	-0.0	-0.0	-0.0	-0.0	-0.0	-0.0	-0.0	-0.0	-0.0	-0.0	-0.0	-0.0
0.4810000000000002	-0.0	-0.0	-0.0	8.888771057128906	-5.897853851318359	-815.8154296875	-0.0	-0.0	-0.0	-0.0	-0.0	-0.0	-0.0	-0.0	-0.0	-0.0	-0.0	-0.0
0.4815000000000002	-0.0	-0.0	-0.0	8.368217468261719	-5.347824096679688	-816.0396118164062	-0.0	-0.0	-0.0	-0.0	-0.0	-0.0	-0.0	-0.0	-0.0	-0.0	-0.0	-0.0
0.4820000000000002	-0.0	-0.0	-0.0	7.915468692779541	-4.8616862297058105	-817.0979614257812	-0.0	-0.0	-0.0	-0.0	-0.0	-0.0	-0.0	-0.0	-0.0	-0.0	-0.0	-0.0
0.4825000000000002	-0.0	-0.0	-0.0	7.51789379119873	-3.7918550968170166	-817.8991088867188	-0.0	-0.0	-0.0	-0.0	-0.0	-0.0	-0.0	-0.0	-0.0	-0.0	-0.0	-0.0
0.4830000000000002	-0.0	-0.0	-0.0	7.404472351074219	-2.80410385131836	-818.7385864257812	-0.0	-0.0	-0.0	-0.0	-0.0	-0.0	-0.0	-0.0	-0.0	-0.0	-0.0	-0.0
0.4835000000000002	-0.0	-0.0	-0.0	7.1368408203125	-2.180492401123047	-818.645751953125	-0.0	-0.0	-0.0	-0.0	-0.0	-0.0	-0.0	-0.0	-0.0	-0.0	-0.0	-0.0
0.4840000000000002	-0.0	-0.0	-0.0	7.080349922180176	-1.200325608253479	-818.8359985351562	-0.0	-0.0	-0.0	-0.0	-0.0	-0.0	-0.0	-0.0	-0.0	-0.0	-0.0	-0.0
0.4845000000000002	-0.0	-0.0	-0.0	7.371675491333008	-0.1638374030590057	-818.31787109375	-0.0	-0.0	-0.0	-0.0	-0.0	-0.0	-0.0	-0.0	-0.0	-0.0	-0.0	-0.0
0.4850000000000002	-0.0	-0.0	-0.0	6.690788269042969	0.8021736145019531	-818.6338500976562	-0.0	-0.0	-0.0	-0.0	-0.0	-0.0	-0.0	-0.0	-0.0	-0.0	-0.0	-0.0
0.4855000000000002	-0.0	-0.0	-0.0	6.531579971313477	1.8155174255371092	-816.4052734375	-0.0	-0.0	-0.0	-0.0	-0.0	-0.0	-0.0	-0.0	-0.0	-0.0	-0.0	-0.0
0.4860000000000002	-0.0	-0.0	-0.0	6.532044410705566	2.796029090881348	-816.1598510742188	-0.0	-0.0	-0.0	-0.0	-0.0	-0.0	-0.0	-0.0	-0.0	-0.0	-0.0	-0.0
0.4865000000000002	-0.0	-0.0	-0.0	6.010187149047852	5.360818862915039	-813.9091186523438	-0.0	-0.0	-0.0	-0.0	-0.0	-0.0	-0.0	-0.0	-0.0	-0.0	-0.0	-0.0
0.4870000000000002	-0.0	-0.0	-0.0	6.0102643966674805	5.882606506347656	-810.9824829101562	-0.0	-0.0	-0.0	-0.0	-0.0	-0.0	-0.0	-0.0	-0.0	-0.0	-0.0	-0.0
0.4875000000000002	-0.0	-0.0	-0.0	5.363127708435059	7.22130537033081	-808.0687255859375	-0.0	-0.0	-0.0	-0.0	-0.0	-0.0	-0.0	-0.0	-0.0	-0.0	-0.0	-0.0
0.4880000000000002	-0.0	-0.0	-0.0	5.387144565582275	7.843475341796875	-804.5862426757812	-0.0	-0.0	-0.0	-0.0	-0.0	-0.0	-0.0	-0.0	-0.0	-0.0	-0.0	-0.0
0.4885000000000002	-0.0	-0.0	-0.0	5.375081539154053	8.868770599365234	-801.4974365234375	-0.0	-0.0	-0.0	-0.0	-0.0	-0.0	-0.0	-0.0	-0.0	-0.0	-0.0	-0.0
0.4890000000000002	-0.0	-0.0	-0.0	5.207655906677246	8.99105167388916	-797.0828247070312	-0.0	-0.0	-0.0	-0.0	-0.0	-0.0	-0.0	-0.0	-0.0	-0.0	-0.0	-0.0
0.4895000000000002	-0.0	-0.0	-0.0	5.1742095947265625	8.423093795776367	-795.4061889648438	-0.0	-0.0	-0.0	-0.0	-0.0	-0.0	-0.0	-0.0	-0.0	-0.0	-0.0	-0.0
0.4900000000000002	-0.0	-0.0	-0.0	4.750169277191162	8.101612091064453	-791.3890991210938	-0.0	-0.0	-0.0	-0.0	-0.0	-0.0	-0.0	-0.0	-0.0	-0.0	-0.0	-0.0
0.4905000000000002	-0.0	-0.0	-0.0	3.969019651412964	7.375964164733887	-793.4220581054688	-0.0	-0.0	-0.0	-0.0	-0.0	-0.0	-0.0	-0.0	-0.0	-0.0	-0.0	-0.0
0.4910000000000002	-0.0	-0.0	-0.0	2.9559662342071533	6.149997711181641	-790.9511108398438	-0.0	-0.0	-0.0	-0.0	-0.0	-0.0	-0.0	-0.0	-0.0	-0.0	-0.0	-0.0
0.4915000000000002	-0.0	-0.0	-0.0	2.445419311523437	5.0588788986206055	-793.0228271484375	-0.0	-0.0	-0.0	-0.0	-0.0	-0.0	-0.0	-0.0	-0.0	-0.0	-0.0	-0.0
0.4920000000000002	-0.0	-0.0	-0.0	1.9965169429779053	3.5866358280181885	-792.5357666015625	-0.0	-0.0	-0.0	-0.0	-0.0	-0.0	-0.0	-0.0	-0.0	-0.0	-0.0	-0.0
0.4925000000000002	-0.0	-0.0	-0.0	1.7076785564422607	1.977606177330017	-793.948486328125	-0.0	-0.0	-0.0	-0.0	-0.0	-0.0	-0.0	-0.0	-0.0	-0.0	-0.0	-0.0
0.4930000000000002	-0.0	-0.0	-0.0	1.0071274042129517	0.5007741451263428	-795.0591430664062	-0.0	-0.0	-0.0	-0.0	-0.0	-0.0	-0.0	-0.0	-0.0	-0.0	-0.0	-0.0
0.4935000000000002	-0.0	-0.0	-0.0	1.3722635507583618	-0.220220685005188	-796.8570556640625	-0.0	-0.0	-0.0	-0.0	-0.0	-0.0	-0.0	-0.0	-0.0	-0.0	-0.0	-0.0
0.4940000000000002	-0.0	-0.0	-0.0	1.5924500226974487	-1.699306607246399	-797.83349609375	-0.0	-0.0	-0.0	-0.0	-0.0	-0.0	-0.0	-0.0	-0.0	-0.0	-0.0	-0.0
0.4945000000000002	-0.0	-0.0	-0.0	1.6057891845703125	-2.8728647232055664	-799.0853881835938	-0.0	-0.0	-0.0	-0.0	-0.0	-0.0	-0.0	-0.0	-0.0	-0.0	-0.0	-0.0
0.4950000000000002	-0.0	-0.0	-0.0	1.736111044883728	-3.866903781890869	-800.0884399414062	-0.0	-0.0	-0.0	-0.0	-0.0	-0.0	-0.0	-0.0	-0.0	-0.0	-0.0	-0.0
0.4955000000000002	-0.0	-0.0	-0.0	1.447772741317749	-5.19635009765625	-801.718505859375	-0.0	-0.0	-0.0	-0.0	-0.0	-0.0	-0.0	-0.0	-0.0	-0.0	-0.0	-0.0
0.4960000000000002	-0.0	-0.0	-0.0	1.7416133880615234	-5.684092998504639	-802.9144287109375	-0.0	-0.0	-0.0	-0.0	-0.0	-0.0	-0.0	-0.0	-0.0	-0.0	-0.0	-0.0
0.4965000000000002	-0.0	-0.0	-0.0	1.6604524850845337	-5.911442756652832	-805.8994750976562	-0.0	-0.0	-0.0	-0.0	-0.0	-0.0	-0.0	-0.0	-0.0	-0.0	-0.0	-0.0
